<svg xmlns="http://www.w3.org/2000/svg" xml:space="preserve" width="2000" height="1500" data-id="lg_0aveljInzKghdFOSGg" data-version="1" viewBox="0 0 2000 1500"><path fill="#581381" stroke="transparent" d="M0 0h2000v1500H0z"/><g data-padding="20"><g transform="translate(-1647.059 -1246.72)scale(2.57847)"><rect width="387.242" height="180.89" x="432.74" y="283.636" fill="none" rx="0" ry="0" transform="translate(486.88 400.3)"/><path fill="#f5a1e8" d="M961.811 720.53q0-4.93-1.94-7.8-1.93-2.88-5.29-4.14-3.35-1.27-7.68-1.27h-9.15v27.05h8.83q4.46 0 7.87-1.22 3.4-1.22 5.38-4.23t1.98-8.39m8.55-.1q0 7.41-3.15 11.87t-8.67 6.49q-5.52 2.02-12.7 2.02h-8.09v23.51h-8.01v-63.34h16.2q11.31 0 17.87 4.76 6.55 4.76 6.55 14.69m48.91 43.89-5.06-16.15h-25.07l-5.06 16.15h-7.87l20.61-63.34h10.21l20.61 63.34Zm-17.53-56.63-10.53 33.86h20.93Zm77.23 11.04q0 4.74-2.05 8.28t-5.54 5.84q-3.5 2.3-7.87 3.36l18.77 28.11h-9.57l-17.29-27.19h-8.56v27.19h-8v-63.34h16.28q11.73 0 17.78 4.48 6.05 4.49 6.05 13.27m-8.56 0q0-6.12-3.49-8.76-3.5-2.65-10.86-2.65h-9.2v23.56h9.2q6.81 0 10.58-2.79 3.77-2.78 3.77-9.36m59.25 45.59-5.06-16.15h-25.07l-5.06 16.15h-7.87l20.61-63.34h10.21l20.61 63.34Zm-17.53-56.63-10.53 33.86h20.93Zm133.63.14h-19.22v56.49h-7.96v-56.49h-19.78v-6.85h47.79Zm45.04-6.85h8.05v42.82q0 6.4-2.6 11.27-2.6 4.88-7.31 7.59-4.72 2.72-11.11 2.72-6.54 0-11.2-2.74-4.67-2.74-7.16-7.61-2.48-4.88-2.48-11.23v-42.82h7.91v43.1q0 7.22 3.38 10.81t9.55 3.59q6.21 0 9.59-3.59t3.38-10.81Zm-360.83 76.93 16.93 54.28 17.11-54.28h8.05l-21.2 63.34h-8.28l-21.21-63.34Zm90.95 6.53h-27.05v21.34h23.46v6.58h-23.46v22.5h28.79v6.39h-36.8v-63.34h35.98Zm58.05 11.22q0 4.74-2.05 8.28-2.05 3.55-5.54 5.85-3.5 2.3-7.87 3.35l18.77 28.11h-9.57l-17.29-27.19h-8.56v27.19h-8v-63.34h16.28q11.73 0 17.78 4.48 6.05 4.49 6.05 13.27m-8.56 0q0-6.11-3.49-8.76-3.5-2.64-10.86-2.64h-9.2v23.55h9.2q6.81 0 10.58-2.79 3.77-2.78 3.77-9.36m60.91-11.22h-27.05v21.34h23.46v6.58h-23.46v22.5h28.79v6.39h-36.8v-63.34h35.98Zm57.96 39.28q0 5.43-2.72 9.64-2.71 4.21-7.86 6.58-5.16 2.37-12.56 2.37-6.95 0-12.58-2.12-5.64-2.11-9.64-5.98l4.74-5.33q3.31 3.08 7.59 4.89 4.28 1.82 10.03 1.82 3.86 0 7.22-1.26 3.36-1.27 5.43-3.87t2.07-6.6q0-3.08-1.2-5.24t-4.23-3.84q-3.04-1.68-8.47-3.29-6.25-1.84-10.83-4.17-4.58-2.32-7.08-5.72-2.51-3.41-2.51-8.42 0-4.74 2.62-8.42t7.25-5.77q4.62-2.09 10.65-2.09 6.57 0 11.43 1.86 4.85 1.86 8.81 5.36l-4.7 5.2q-3.4-3.04-7.31-4.4-3.91-1.35-7.96-1.35-3.45 0-6.32 1.03-2.88 1.04-4.6 3.08-1.73 2.05-1.73 5.22 0 2.72 1.47 4.7 1.48 1.97 4.97 3.61 3.5 1.63 9.52 3.42 4.93 1.43 9.14 3.57 4.2 2.14 6.78 5.79 2.58 3.66 2.58 9.73m28.88-45.81h8.65l-.78 42.46h-6.95Zm4.47 52.07q2.66 0 4.44 1.79 1.77 1.8 1.77 4.33 0 2.57-1.77 4.39-1.78 1.82-4.44 1.82-2.63 0-4.37-1.82-1.75-1.82-1.75-4.39 0-2.53 1.75-4.33 1.74-1.79 4.37-1.79m-346.406-88.686h-59.8l22.785-38.396a2.396 2.396 0 0 0-4.366-1.882l-23.27 39.132-13.23-26.55a2.396 2.396 0 1 0-4.263 2.133l12.73 25.578h-49.803a10.66 10.66 0 0 0-10.673 10.657V830.7c0 5.88 4.778 10.672 10.673 10.672h119.217a10.67 10.67 0 0 0 10.672-10.672v-78.734c0-5.88-4.778-10.672-10.673-10.672m-13.083 11.7h11.613a2.389 2.389 0 0 1 0 4.779h-11.613a2.389 2.389 0 1 1 0-4.778m-33.486 37.103h.088l.867.162q0 1.029-.147 2.014a26.5 26.5 0 0 1-2.587 9.716c-2.528 5.072-6.63 8.38-11.26 8.38-7.056 0-12.877-7.674-13.789-17.611 0 0 5.572-.926 8.894-2.235 0 0 6.027-2.013 13.377-7.305l.117-.09q.03.016.31.516c.646 1.102 2.013 4.366-.589 5.85Zm-21.977 18.67a12.64 12.64 0 0 0 8.938 4.042c3.234 0 6.248-1.426 8.761-3.852l-1.852 3.852c.617-1.03 2.94-1.31 5.69-1.235-.442 2.616-3.529 4.82-7.792 5.792l-4.807 7.82-4.822-7.835c-3.498-.794-6.203-2.426-7.29-4.454 2.822.25 5.218.764 5.835 1.793ZM848.03 829.2a20.87 20.87 0 0 0-14.406-17.316 87 87 0 0 1 6.703 1.029c-7.144-3.925-6.953-18.008-6.953-18.008 1.25-27.268-16.758-25.843-16.758-25.843v.045-.045s-18.007-1.425-16.758 25.843c0 0 .191 14.068-6.953 17.993 0 0 1.91-.132 4.498-.177a20.87 20.87 0 0 0-12.245 16.935h-23.96a6.365 6.365 0 0 1-6.366-6.365v-63.916c0-3.528 2.852-6.38 6.365-6.38h84.451a6.365 6.365 0 0 1 6.366 6.38v63.916a6.32 6.32 0 0 1-3.984 5.91m11.142-29.68a3.175 3.175 0 1 1-.43-6.336 3.175 3.175 0 0 1 .43 6.336m9.776 0a3.175 3.175 0 1 1-.432-6.336 3.175 3.175 0 0 1 .432 6.336m0-15.538a8.996 8.996 0 1 1 8.996-8.996 8.967 8.967 0 0 1-8.996 8.996m9.776 15.538a3.175 3.175 0 1 1-.432-6.336 3.175 3.175 0 0 1 .431 6.336"/><path fill="#f5a1e8" d="M774.221 772.06c2.088 0 3.822-2.792 4.22-5.085 0-.015.102-2.03-1.353-1.91 0 0-5.057.999-5.792-1.236 0 0-1.103.912-1.323 2.896.294 2.323 2.073 5.336 4.248 5.336m3.94-5.997"/><path fill="#f5a1e8" d="M789.201 757.567h-29.974a2.064 2.064 0 0 0-2.058 2.058v22.873c0 1.132.926 2.058 2.058 2.058h29.988a2.06 2.06 0 0 0 2.044-2.058v-22.873a2.055 2.055 0 0 0-2.058-2.058m-14.98 3.572c2.705 0 4.91 2.205 4.91 4.895 0 2.72-2.205 6.792-4.91 6.792s-4.91-4.072-4.91-6.792c0-2.704 2.205-4.895 4.91-4.895m3.028 19.845h-6.056c-3.249 0-5.88.177-5.88-3.087a5.88 5.88 0 0 1 5.336-5.836c.015 1.059 1.617 1.926 3.572 1.926s3.543-.867 3.572-1.94a5.88 5.88 0 0 1 5.336 5.865c0 3.234-2.63 3.072-5.88 3.072"/></g><path fill="transparent" stroke="transparent" stroke-width="2.674" d="M250 508.021h1500V991.98H250z"/></g></svg>